<mxfile host="app.diagrams.net" modified="2023-08-19T16:02:52.939Z" agent="Mozilla/5.0 (X11; Linux x86_64) AppleWebKit/537.36 (KHTML, like Gecko) Chrome/116.0.0.0 Safari/537.36" version="21.6.8" etag="h5agxWx__8MKXNaFnTCN" type="github">
  <diagram name="Page-1" id="oc-cFNlXomLUFAm-xoyJ">
    <mxGraphModel>
      <root>
        <mxCell id="0" />
        <mxCell id="1" parent="0" />
      </root>
    </mxGraphModel>
  </diagram>
</mxfile>
